<svg xmlns="http://www.w3.org/2000/svg" width="706" height="452" fill="none" viewBox="0 0 706 452">
  <path fill="#fff" d="M0 0h706v452H0z"/>
  <ellipse cx="336.5" cy="350" fill="#FFE9CB" rx="274.5" ry="40"/>
  <path fill="#FD6434" fill-rule="evenodd" d="M530.123 339.59h-22.834c-.425-23.469 18.341-38.239 18.341-38.239-1.057 18.118 1.71 30.586 4.493 38.239Z" clip-rule="evenodd"/>
  <path fill="#E54846" d="m530.025 258.626-5.797-12.057c.029-.454.053-.916.053-1.375 0-13.672-14.158-26.269-37.975-36.358v8.382a168.885 168.885 0 0 0-7.261-2.696v-3.911c-34.037-12.346-84.71-20.145-141.319-20.145-49.467 0-94.387 5.971-127.65 15.698v13.62V203.3c-34.099 10.875-55.231 25.98-55.231 42.685.015 2.667.54 5.306 1.547 7.774l-3.472 6.202s-2.781 3.622 2.117 11.266c4.323 6.752 25.959 33.127 37.38 46.944 4.903 7.085 8.231 11.445 8.52 11.025.48-.67-3.05-13.986-12.79-29.139-4.548-8.15-9.975-18.948-13.236-26.92 9.101 5.787 62.545 32.794 171.57 32.698 111.422-.111 160.943-35.133 166.379-39.903-1.921 7.663-8.39 23.149-13.567 34.067-8.501 15.592-11.584 29.168-11.186 29.838.25.425 3.151-4.07 7.43-11.352 9.956-14.251 28.816-41.446 32.596-48.377 4.298-7.851 1.892-11.482 1.892-11.482Z"/>
  <mask id="b" fill="#fff">
    <path d="m563.69 257.998-38.133-28.02a297.214 297.214 0 0 0-1.086-3.729l12.524-18.106a6.765 6.765 0 0 0 .706-6.333 6.339 6.339 0 0 0-1.884-2.605 6.375 6.375 0 0 0-2.921-1.35l-21.174-3.586a193.5 193.5 0 0 0-2.547-4.947l8.9-20.316a6.744 6.744 0 0 0-.48-6.356 6.178 6.178 0 0 0-5.45-2.906l-21.495.782a194.96 194.96 0 0 0-3.393-4.286l4.94-21.778a6.744 6.744 0 0 0-1.677-6.136 6.13 6.13 0 0 0-5.887-1.74l-20.938 5.129a181.01 181.01 0 0 0-4.123-3.528l.75-22.358a6.608 6.608 0 0 0-2.792-5.671 6.062 6.062 0 0 0-6.103-.513l-19.535 9.266a208.844 208.844 0 0 0-4.753-2.656l-3.45-22.051a6.529 6.529 0 0 0-3.806-4.995 6.06 6.06 0 0 0-6.079.738l-17.411 13.03a197.003 197.003 0 0 0-5.18-1.635l-7.487-20.858a6.347 6.347 0 0 0-4.667-4.132 6.157 6.157 0 0 0-5.824 1.956l-14.657 16.356a178.058 178.058 0 0 0-5.32-.546L341.917 65.1a6.15 6.15 0 0 0-5.348-3.1 6.15 6.15 0 0 0-5.349 3.1l-11.312 19.018c-1.778.153-3.561.34-5.33.546l-14.657-16.356a6.163 6.163 0 0 0-5.824-1.956 6.368 6.368 0 0 0-2.876 1.456 6.343 6.343 0 0 0-1.79 2.676l-7.511 20.892a210.14 210.14 0 0 0-5.181 1.634l-17.406-13.03a6.061 6.061 0 0 0-6.088-.738 6.52 6.52 0 0 0-3.802 4.995l-3.45 22.052c-1.6.863-3.181 1.75-4.757 2.656l-19.526-9.262a6.06 6.06 0 0 0-6.107.513 6.607 6.607 0 0 0-2.792 5.671l.749 22.358a223.756 223.756 0 0 0-4.128 3.529l-20.928-5.13a6.155 6.155 0 0 0-5.897 1.74 6.732 6.732 0 0 0-1.677 6.136l4.931 21.779c-1.144 1.438-2.273 2.837-3.364 4.285l-21.495-.781a6.257 6.257 0 0 0-5.45 2.905 6.762 6.762 0 0 0-.48 6.356l8.904 20.317a203.678 203.678 0 0 0-2.551 4.947l-21.174 3.585a6.359 6.359 0 0 0-4.805 3.955 6.8 6.8 0 0 0 .677 6.295l12.523 18.096c-.096.321-.182.643-.278.959l-35.417 37.53s-5.426 4.243 2.475 14.214c6.968 8.797 42.745 43.667 61.641 61.936 7.982 9.276 13.455 15.019 14.018 14.525.903-.791-3.845-17.665-19.55-37.463-12.119-17.757-27.843-45.081-24.157-48.212 0 0 4.195-5.311 12.61-9.137-.318-.239.307.25 0 0 0 0 177.604 81.73 342.363 1.386 18.824-3.356 30.218 6.711 30.218 6.711 3.926 2.272-6.248 30.369-14.614 48.964-11.38 21.117-13.047 37.593-12.081 38.163.605.365 4.748-5.92 10.654-15.92 14.57-20.258 42.116-58.872 47.162-68.249 5.713-10.657 0-13.648 0-13.648Z"/>
  </mask>
  <path fill="url(#a)" d="m563.69 257.998-38.133-28.02a297.214 297.214 0 0 0-1.086-3.729l12.524-18.106a6.765 6.765 0 0 0 .706-6.333 6.339 6.339 0 0 0-1.884-2.605 6.375 6.375 0 0 0-2.921-1.35l-21.174-3.586a193.5 193.5 0 0 0-2.547-4.947l8.9-20.316a6.744 6.744 0 0 0-.48-6.356 6.178 6.178 0 0 0-5.45-2.906l-21.495.782a194.96 194.96 0 0 0-3.393-4.286l4.94-21.778a6.744 6.744 0 0 0-1.677-6.136 6.13 6.13 0 0 0-5.887-1.74l-20.938 5.129a181.01 181.01 0 0 0-4.123-3.528l.75-22.358a6.608 6.608 0 0 0-2.792-5.671 6.062 6.062 0 0 0-6.103-.513l-19.535 9.266a208.844 208.844 0 0 0-4.753-2.656l-3.45-22.051a6.529 6.529 0 0 0-3.806-4.995 6.06 6.06 0 0 0-6.079.738l-17.411 13.03a197.003 197.003 0 0 0-5.18-1.635l-7.487-20.858a6.347 6.347 0 0 0-4.667-4.132 6.157 6.157 0 0 0-5.824 1.956l-14.657 16.356a178.058 178.058 0 0 0-5.32-.546L341.917 65.1a6.15 6.15 0 0 0-5.348-3.1 6.15 6.15 0 0 0-5.349 3.1l-11.312 19.018c-1.778.153-3.561.34-5.33.546l-14.657-16.356a6.163 6.163 0 0 0-5.824-1.956 6.368 6.368 0 0 0-2.876 1.456 6.343 6.343 0 0 0-1.79 2.676l-7.511 20.892a210.14 210.14 0 0 0-5.181 1.634l-17.406-13.03a6.061 6.061 0 0 0-6.088-.738 6.52 6.52 0 0 0-3.802 4.995l-3.45 22.052c-1.6.863-3.181 1.75-4.757 2.656l-19.526-9.262a6.06 6.06 0 0 0-6.107.513 6.607 6.607 0 0 0-2.792 5.671l.749 22.358a223.756 223.756 0 0 0-4.128 3.529l-20.928-5.13a6.155 6.155 0 0 0-5.897 1.74 6.732 6.732 0 0 0-1.677 6.136l4.931 21.779c-1.144 1.438-2.273 2.837-3.364 4.285l-21.495-.781a6.257 6.257 0 0 0-5.45 2.905 6.762 6.762 0 0 0-.48 6.356l8.904 20.317a203.678 203.678 0 0 0-2.551 4.947l-21.174 3.585a6.359 6.359 0 0 0-4.805 3.955 6.8 6.8 0 0 0 .677 6.295l12.523 18.096c-.096.321-.182.643-.278.959l-35.417 37.53s-5.426 4.243 2.475 14.214c6.968 8.797 42.745 43.667 61.641 61.936 7.982 9.276 13.455 15.019 14.018 14.525.903-.791-3.845-17.665-19.55-37.463-12.119-17.757-27.843-45.081-24.157-48.212 0 0 4.195-5.311 12.61-9.137-.318-.239.307.25 0 0 0 0 177.604 81.73 342.363 1.386 18.824-3.356 30.218 6.711 30.218 6.711 3.926 2.272-6.248 30.369-14.614 48.964-11.38 21.117-13.047 37.593-12.081 38.163.605.365 4.748-5.92 10.654-15.92 14.57-20.258 42.116-58.872 47.162-68.249 5.713-10.657 0-13.648 0-13.648Z"/>
  <path fill="#F63" d="m563.69 257.998-2.369 3.223.245.18.268.141 1.856-3.544Zm-38.133-28.02-3.846 1.098.375 1.315 1.103.811 2.368-3.224Zm-1.086-3.729-3.289-2.276-1.094 1.581.551 1.841 3.832-1.146Zm12.524-18.106 3.289 2.275.005-.006.004-.007-3.298-2.262Zm.706-6.333-3.729 1.446.006.017.007.018 3.716-1.481Zm-4.805-3.955.705-3.937-.019-.004-.019-.003-.667 3.944Zm-21.174-3.586-3.588 1.768.904 1.835 2.016.341.668-3.944Zm-2.547-4.947-3.664-1.605-.775 1.769.904 1.707 3.535-1.871Zm8.9-20.316-3.659-1.616-.005.011 3.664 1.605Zm-.48-6.356-3.394 2.116.009.016.01.015 3.375-2.147Zm-5.45-2.906-.13-3.997H512l.145 3.997Zm-21.495.782-3.167 2.444 1.257 1.628 2.055-.075-.145-3.997Zm-3.393-4.286-3.901-.885-.432 1.906 1.237 1.512 3.096-2.533Zm4.94-21.778-3.899-.892-.002.007 3.901.885Zm-1.677-6.136 2.905-2.75-.002-.002-2.903 2.752Zm-5.887-1.74-.937-3.889-.008.002-.007.002.952 3.885Zm-20.938 5.129-2.646 3 1.568 1.383 2.03-.498-.952-3.885Zm-4.123-3.528-3.998-.134-.065 1.959 1.508 1.253 2.555-3.078Zm.75-22.358-3.997-.167v.016l-.001.017 3.998.134Zm-2.792-5.671 2.307-3.268-.006-.004-2.301 3.272Zm-6.103-.513 1.714 3.614.008-.004-1.722-3.61Zm-19.535 9.266-1.99 3.47 1.814 1.041 1.89-.897-1.714-3.614Zm-4.753-2.656-3.952.619.307 1.96 1.747.942 1.898-3.521Zm-3.45-22.051-3.957.59.003.014.002.014 3.952-.618Zm-3.806-4.995 1.622-3.657-.016-.006-.015-.007-1.591 3.67Zm-6.079.738 2.396 3.203.014-.01.014-.011-2.424-3.182Zm-17.411 13.03-1.252 3.798 1.98.653 1.669-1.249-2.397-3.202Zm-5.18-1.635-3.765 1.351.682 1.901 1.935.58 1.148-3.832Zm-7.487-20.858-3.783 1.302.009.025.009.024 3.765-1.35Zm-4.667-4.132.839-3.911-.025-.006-.025-.005-.789 3.922Zm-5.824 1.956 2.979 2.67.009-.011.009-.01-2.997-2.65Zm-14.657 16.356-.463 3.973 2.059.24 1.383-1.543-2.979-2.67Zm-5.32-.546-3.435 2.049 1.05 1.76 2.041.176.344-3.985ZM341.917 65.1l-3.473 1.984.018.032.02.032 3.435-2.048Zm-10.697 0 3.438 2.045.018-.03.017-.031-3.473-1.984Zm-11.312 19.017.343 3.985 2.045-.177 1.049-1.763-3.437-2.045Zm-5.33.546-2.979 2.67 1.384 1.543 2.058-.24-.463-3.973Zm-14.657-16.356-2.996 2.65.009.01.008.01 2.979-2.67Zm-5.824-1.956-.787-3.922-.029.006-.03.006.846 3.91Zm-4.666 4.132 3.764 1.353.008-.022.008-.023-3.78-1.308Zm-7.511 20.892 1.15 3.83 1.931-.58.683-1.897-3.764-1.353Zm-5.181 1.634-2.397 3.202 1.668 1.249 1.979-.651-1.25-3.8Zm-17.406-13.03-2.423 3.183.013.01.013.01 2.397-3.202Zm-6.088-.738-1.592-3.67-.018.008-.017.008 1.627 3.654Zm-3.802 4.995 3.952.619.003-.015.002-.014-3.957-.59Zm-3.45 22.052 1.899 3.521 1.746-.942.307-1.961-3.952-.618Zm-4.757 2.656-1.715 3.614 1.892.897 1.816-1.043-1.993-3.468Zm-19.526-9.262-1.726 3.608.012.006 1.714-3.614Zm-6.107.513-2.305-3.27-.005.004 2.31 3.266Zm-2.792 5.671 3.997-.134v-.015l-.001-.015-3.996.164Zm.749 22.358 2.562 3.072 1.501-1.252-.065-1.954-3.998.134Zm-4.128 3.529-.952 3.885 2.022.495 1.566-1.371-2.636-3.009Zm-20.928-5.13.952-3.885-.009-.002-.009-.002-.934 3.889Zm-5.897 1.74-2.897-2.757-.007.007 2.904 2.75Zm-1.677 6.136 3.902-.883-.002-.009-3.9.892Zm4.931 21.779 3.131 2.489 1.194-1.501-.424-1.872-3.901.884Zm-3.364 4.285-.145 3.998 2.084.075 1.256-1.666-3.195-2.407Zm-21.495-.781.145-3.998h-.02l-.02-.001-.105 3.999Zm-5.45 2.905 3.377 2.143.004-.005-3.381-2.138Zm-.48 6.356 3.663-1.605-.003-.007-3.66 1.612Zm8.904 20.317 3.536 1.87.903-1.707-.775-1.769-3.664 1.606Zm-2.551 4.947.667 3.944 2.011-.341.906-1.827-3.584-1.776Zm-21.174 3.585-.668-3.943-.018.003-.018.003.704 3.937Zm-4.805 3.955 3.72 1.471.005-.013.005-.014-3.73-1.444Zm.677 6.295-3.322 2.227.016.025.017.024 3.289-2.276Zm12.523 18.096 3.833 1.147.551-1.842-1.094-1.581-3.29 2.276Zm-.278.959 2.909 2.745.645-.683.273-.899-3.827-1.163Zm-35.417 37.53 2.464 3.151.238-.186.207-.219-2.909-2.746Zm2.475 14.214 3.135-2.484-3.135 2.484Zm61.641 61.936 3.032-2.609-.12-.139-.132-.128-2.78 2.876Zm14.018 14.525-2.635-3.01-.005.004 2.64 3.006Zm-19.55-37.463-3.303 2.255.081.118.089.112 3.133-2.485Zm-24.157-48.212 2.589 3.049.303-.257.247-.312-3.139-2.48Zm354.973-7.751-.702-3.938-.549.098-.502.245 1.753 3.595Zm30.218 6.711-2.649 2.998.3.264.345.2 2.004-3.462Zm-14.614 48.964 3.521 1.897.068-.125.059-.131-3.648-1.641Zm-12.081 38.163 2.062-3.427-.014-.009-.014-.008-2.034 3.444Zm10.654-15.92-3.248-2.335-.105.146-.091.155 3.444 2.034Zm47.162-68.249 3.522 1.895.003-.005-3.525-1.89Zm2.368-16.871-38.132-28.02-4.737 6.447 38.132 28.019 4.737-6.446Zm-36.654-25.894a325.058 325.058 0 0 0-1.1-3.779l-7.665 2.293c.363 1.214.719 2.443 1.072 3.681l7.693-2.195Zm-1.643-.357 12.523-18.106-6.579-4.551-12.523 18.106 6.579 4.551Zm12.532-18.119a10.77 10.77 0 0 0 1.823-4.897l-7.951-.887c-.05.451-.211.883-.469 1.259l6.597 4.525Zm1.823-4.897a10.762 10.762 0 0 0-.699-5.179l-7.432 2.962c.169.422.23.879.18 1.33l7.951.887Zm-.685-5.144a10.343 10.343 0 0 0-3.072-4.247l-5.084 6.177c.312.256.552.588.697.962l7.459-2.892Zm-3.072-4.247a10.357 10.357 0 0 0-4.758-2.199l-1.411 7.874c.4.072.773.245 1.085.502l5.084-6.177Zm-4.796-2.206-21.173-3.585-1.336 7.887 21.174 3.586 1.335-7.888Zm-18.253-1.409a192.984 192.984 0 0 0-2.599-5.051l-7.071 3.742a187.66 187.66 0 0 1 2.494 4.844l7.176-3.535Zm-2.471-1.575 8.9-20.316-7.328-3.21-8.9 20.316 7.328 3.21Zm8.895-20.305c.715-1.619 1.02-3.39.887-5.156l-7.978.603a2.75 2.75 0 0 1-.227 1.321l7.318 3.232Zm.887-5.156a10.76 10.76 0 0 0-1.652-4.964l-6.749 4.295c.244.384.389.821.423 1.272l7.978-.603Zm-1.632-4.933a10.18 10.18 0 0 0-3.847-3.594l-3.764 7.06c.338.18.621.445.823.767l6.788-4.233Zm-3.847-3.594a10.184 10.184 0 0 0-5.127-1.192l.261 7.995c.384-.012.764.076 1.102.257l3.764-7.06ZM512 155.747l-21.496.782.291 7.994 21.495-.781-.29-7.995Zm-18.184 2.335a197.671 197.671 0 0 0-3.463-4.375l-6.192 5.066a186.93 186.93 0 0 1 3.322 4.197l6.333-4.888Zm-2.658-.957 4.94-21.778-7.802-1.77-4.94 21.778 7.802 1.77Zm4.938-21.771a10.73 10.73 0 0 0-.109-5.224l-7.717 2.109c.119.435.128.892.028 1.331l7.798 1.784Zm-.109-5.224a10.747 10.747 0 0 0-2.562-4.554l-5.81 5.5c.312.329.536.729.655 1.163l7.717-2.109Zm-2.564-4.556a10.115 10.115 0 0 0-4.478-2.743l-2.268 7.671c.36.107.684.306.94.576l5.806-5.504Zm-4.478-2.743a10.137 10.137 0 0 0-5.249-.134l1.875 7.777a2.139 2.139 0 0 1 1.106.028l2.268-7.671Zm-5.264-.13-20.938 5.129 1.904 7.77 20.938-5.129-1.904-7.77Zm-17.34 6.014a189.093 189.093 0 0 0-4.214-3.606l-5.11 6.156a175.202 175.202 0 0 1 4.032 3.45l5.292-6Zm-2.771-.394.749-22.358-7.995-.268-.75 22.358 7.996.268Zm.748-22.325a10.59 10.59 0 0 0-1.081-5.124l-7.177 3.534a2.6 2.6 0 0 1 .265 1.256l7.993.334Zm-1.081-5.124a10.613 10.613 0 0 0-3.4-3.982l-4.615 6.535c.358.253.646.59.838.981l7.177-3.534Zm-3.406-3.986a10.059 10.059 0 0 0-4.948-1.797l-.67 7.972c.366.03.716.158 1.015.368l4.603-6.543Zm-4.948-1.797c-1.78-.15-3.567.177-5.179.946l3.445 7.22a2.065 2.065 0 0 1 1.064-.194l.67-7.972Zm-5.171.942-19.534 9.266 3.428 7.228 19.535-9.266-3.429-7.228Zm-15.83 9.41c-1.587-.91-3.201-1.82-4.844-2.706l-3.797 7.041c1.557.84 3.105 1.712 4.661 2.605l3.98-6.94Zm-2.791.196-3.45-22.051-7.904 1.236 3.45 22.052 7.904-1.237Zm-3.446-22.022a10.503 10.503 0 0 0-2.035-4.82l-6.363 4.849c.257.337.423.732.485 1.15l7.913-1.18Zm-2.035-4.82a10.53 10.53 0 0 0-4.105-3.243l-3.244 7.313c.39.173.729.441.986.779l6.363-4.849Zm-4.136-3.256a10.065 10.065 0 0 0-5.214-.757l.965 7.942a2.06 2.06 0 0 1 1.067.155l3.182-7.34Zm-5.214-.757c-1.774.216-3.459.9-4.88 1.983l4.848 6.364c.289-.22.633-.36.997-.405l-.965-7.942Zm-4.853 1.963-17.411 13.03 4.794 6.404 17.41-13.03-4.793-6.404Zm-13.761 12.433a201.155 201.155 0 0 0-5.285-1.668l-2.296 7.664c1.703.51 3.387 1.045 5.076 1.601l2.505-7.597Zm-2.668.813-7.488-20.858-7.529 2.703 7.487 20.857 7.53-2.703Zm-7.47-20.808a10.326 10.326 0 0 0-2.919-4.372l-5.304 5.99c.302.267.528.606.658.984l7.565-2.602Zm-2.919-4.372a10.344 10.344 0 0 0-4.691-2.37l-1.678 7.822c.397.085.764.27 1.065.538l5.304-5.99Zm-4.741-2.38a10.164 10.164 0 0 0-5.237.329l2.547 7.583c.358-.12.742-.144 1.113-.07l1.577-7.843Zm-5.237.329a10.146 10.146 0 0 0-4.373 2.899l5.994 5.298c.249-.281.568-.493.926-.614l-2.547-7.583Zm-4.355 2.878-14.657 16.357 5.958 5.339 14.657-16.357-5.958-5.339Zm-11.215 15.053c-1.797-.21-3.611-.4-5.439-.559l-.688 7.97c1.729.15 3.461.332 5.201.535l.926-7.946Zm-2.347 1.378-11.341-19.017-6.871 4.098 11.341 19.016 6.871-4.097ZM345.39 63.117a10.146 10.146 0 0 0-3.722-3.746l-4.012 6.921c.329.191.601.465.788.793l6.946-3.968Zm-3.722-3.746A10.17 10.17 0 0 0 336.569 58v8c.382 0 .757.101 1.087.292l4.012-6.921ZM336.569 58c-1.791 0-3.55.473-5.1 1.37l4.013 6.922a2.165 2.165 0 0 1 1.087-.292v-8Zm-5.1 1.37a10.145 10.145 0 0 0-3.722 3.747l6.946 3.968c.188-.328.459-.602.789-.793l-4.013-6.921Zm-3.687 3.686L316.47 82.073l6.875 4.09 11.313-19.017-6.876-4.09Zm-8.218 17.076c-1.827.158-3.65.35-5.449.56l.926 7.945c1.739-.202 3.481-.385 5.21-.534l-.687-7.97Zm-2.007 1.863L302.9 65.638l-5.958 5.34 14.657 16.356 5.958-5.34Zm-14.64-16.338a10.147 10.147 0 0 0-4.372-2.897l-2.547 7.584c.359.12.678.333.927.614l5.992-5.3Zm-4.372-2.897a10.169 10.169 0 0 0-5.235-.33l1.573 7.844c.372-.075.756-.05 1.115.07l2.547-7.584Zm-5.294-.318a10.37 10.37 0 0 0-4.682 2.372l5.304 5.989a2.367 2.367 0 0 1 1.069-.541l-1.691-7.82Zm-4.682 2.372a10.354 10.354 0 0 0-2.919 4.362l7.561 2.616c.131-.38.359-.72.662-.99l-5.304-5.988Zm-2.902 4.317-7.512 20.891 7.529 2.707 7.511-20.892-7.528-2.706Zm-4.898 18.413c-1.78.535-3.534 1.092-5.279 1.666l2.499 7.6a204.695 204.695 0 0 1 5.081-1.604l-2.301-7.662Zm-1.633 2.264-17.406-13.03-4.794 6.405 17.406 13.03 4.794-6.405Zm-17.379-13.01a10.061 10.061 0 0 0-4.886-1.983l-.963 7.942c.365.044.711.184 1.002.406l4.847-6.365Zm-4.886-1.983a10.069 10.069 0 0 0-5.218.758l3.183 7.34a2.07 2.07 0 0 1 1.072-.156l.963-7.942Zm-5.253.773a10.533 10.533 0 0 0-4.099 3.244l6.367 4.844c.256-.337.595-.606.985-.78l-3.253-7.308Zm-4.099 3.244a10.512 10.512 0 0 0-2.032 4.816l7.913 1.179c.062-.417.229-.813.486-1.15l-6.367-4.845Zm-2.027 4.787-3.451 22.052 7.904 1.236 3.45-22.051-7.903-1.237Zm-1.397 19.149a204.134 204.134 0 0 0-4.853 2.709l3.987 6.936a192.423 192.423 0 0 1 4.663-2.603l-3.797-7.042Zm-1.145 2.563-19.525-9.262-3.429 7.228 19.525 9.262 3.429-7.228Zm-19.513-9.256a10.063 10.063 0 0 0-5.185-.95l.669 7.972c.366-.031.733.036 1.063.194l3.453-7.216Zm-5.185-.95a10.06 10.06 0 0 0-4.954 1.802l4.609 6.538c.299-.21.649-.337 1.014-.368l-.669-7.972Zm-4.959 1.805a10.62 10.62 0 0 0-3.397 3.981l7.177 3.534c.193-.392.481-.73.84-.983l-4.62-6.532Zm-3.397 3.981a10.6 10.6 0 0 0-1.082 5.12l7.993-.328a2.609 2.609 0 0 1 .266-1.258l-7.177-3.534Zm-1.083 5.09.749 22.358 7.996-.268-.75-22.358-7.995.268Zm2.185 19.152a232.298 232.298 0 0 0-4.201 3.591l5.271 6.019a219.62 219.62 0 0 1 4.054-3.466l-5.124-6.144Zm-.614 2.716-20.928-5.13-1.904 7.77 20.928 5.13 1.904-7.77Zm-20.946-5.134a10.165 10.165 0 0 0-5.248.134l2.264 7.673a2.156 2.156 0 0 1 1.116-.028l1.868-7.779Zm-5.248.134a10.145 10.145 0 0 0-4.48 2.738l5.795 5.515a2.15 2.15 0 0 1 .949-.58l-2.264-7.673Zm-4.487 2.745a10.743 10.743 0 0 0-2.562 4.554l7.716 2.11c.119-.435.344-.835.655-1.164l-5.809-5.5Zm-2.562 4.554a10.733 10.733 0 0 0-.11 5.225l7.799-1.785a2.734 2.734 0 0 1 .027-1.33l-7.716-2.11Zm-.112 5.216 4.931 21.778 7.802-1.767-4.93-21.778-7.803 1.767Zm5.701 18.405c-1.119 1.407-2.296 2.866-3.428 4.368l6.39 4.814c1.05-1.393 2.132-2.734 3.3-4.203l-6.262-4.979Zm-.088 2.778-21.495-.782-.291 7.995 21.496.782.29-7.995Zm-21.535-.783a10.258 10.258 0 0 0-5.097 1.202l3.763 7.06a2.26 2.26 0 0 1 1.123-.265l.211-7.997Zm-5.097 1.202a10.246 10.246 0 0 0-3.839 3.564l6.762 4.276c.207-.328.496-.596.84-.78l-3.763-7.06Zm-3.835 3.558a10.77 10.77 0 0 0-1.647 4.961l7.977.603c.035-.453.18-.892.424-1.277l-6.754-4.287Zm-1.647 4.961c-.133 1.764.17 3.533.883 5.151l7.321-3.224a2.774 2.774 0 0 1-.227-1.324l-7.977-.603Zm.88 5.145 8.905 20.316 7.327-3.211-8.905-20.316-7.327 3.211Zm9.033 16.84a212.953 212.953 0 0 0-2.601 5.042l7.169 3.552a201.9 201.9 0 0 1 2.503-4.853l-7.071-3.741Zm.316 2.874-21.174 3.586 1.336 7.887 21.173-3.585-1.335-7.888Zm-21.21 3.592a10.362 10.362 0 0 0-4.76 2.198l5.084 6.178c.311-.257.685-.43 1.084-.501l-1.408-7.875Zm-4.76 2.198a10.343 10.343 0 0 0-3.072 4.25l7.461 2.888c.144-.373.383-.704.695-.96l-5.084-6.178Zm-3.061 4.224a10.805 10.805 0 0 0-.695 5.129l7.954-.857a2.802 2.802 0 0 1 .181-1.331l-7.44-2.941Zm-.695 5.129c.187 1.74.795 3.409 1.77 4.863l6.645-4.455a2.806 2.806 0 0 1-.461-1.265l-7.954.857Zm1.803 4.912 12.523 18.096 6.579-4.552-12.524-18.097-6.578 4.553Zm11.98 14.673c-.198.664-.12.437-.274.943l7.655 2.326c.059-.195.113-.385.159-.543.047-.168.085-.301.125-.432l-7.665-2.294Zm.645-.639-35.417 37.53 5.818 5.491 35.417-37.531-5.818-5.49Zm-32.508 40.275c-2.464-3.151-2.467-3.148-2.47-3.146l-.006.005-.012.009-.026.021c-.018.015-.038.03-.058.048a6.89 6.89 0 0 0-.501.464c-.271.276-.6.652-.935 1.133-.676.972-1.374 2.369-1.667 4.203-.603 3.77.63 8.427 5.014 13.961l6.271-4.968c-3.516-4.437-3.521-6.887-3.386-7.73.076-.474.24-.76.335-.896.05-.072.083-.105.078-.1l-.043.04-.053.045-.035.029-.021.016-.01.009a.031.031 0 0 0-.006.004c-.003.002-.005.004-2.469-3.147Zm-.661 16.698c3.669 4.632 14.57 15.751 26.664 27.769 12.196 12.12 25.88 25.42 35.332 34.559l5.561-5.752c-9.443-9.13-23.096-22.4-35.254-34.482-12.261-12.183-22.733-22.897-26.032-27.062l-6.271 4.968Zm61.745 62.061c4.009 4.659 7.428 8.478 9.94 11.09 1.242 1.291 2.335 2.365 3.203 3.107.409.35.918.759 1.453 1.071a5.01 5.01 0 0 0 1.373.561c.537.127 2.228.403 3.72-.907l-5.279-6.012c1.422-1.248 3.005-.959 3.396-.867.492.116.798.302.824.317.097.057.024.025-.284-.239-.566-.485-1.445-1.334-2.64-2.577-2.361-2.455-5.669-6.145-9.642-10.762l-6.064 5.218Zm19.684 14.926a4.257 4.257 0 0 0 1.259-1.962c.139-.455.183-.86.2-1.126a7.565 7.565 0 0 0-.063-1.457c-.108-.845-.336-1.853-.645-2.952-.627-2.228-1.7-5.216-3.28-8.75-3.167-7.082-8.451-16.539-16.521-26.712l-6.267 4.971c7.634 9.625 12.577 18.504 15.484 25.007 1.457 3.258 2.383 5.874 2.883 7.651.255.905.372 1.499.412 1.805.022.171.001.117.014-.074.006-.094.027-.357.132-.701.09-.293.36-1.052 1.123-1.72l5.269 6.02Zm-18.88-42.728c-5.994-8.782-12.872-19.922-17.772-29.203-2.462-4.663-4.351-8.719-5.397-11.716-.533-1.523-.77-2.561-.827-3.167-.087-.933.295.183-.876 1.178l-5.179-6.097c-2.092 1.777-2.025 4.432-1.91 5.662.145 1.557.626 3.306 1.239 5.062 1.244 3.562 3.352 8.034 5.875 12.813 5.07 9.603 12.114 21.003 18.24 29.978l6.607-4.51Zm-27.461-45.957c3.139 2.48 3.138 2.481 3.137 2.482l-.001.001-.003.003-.003.005-.004.004.012-.014c.015-.018.046-.056.093-.11.094-.109.25-.287.469-.519a26.978 26.978 0 0 1 2.057-1.952c1.869-1.607 4.706-3.667 8.508-5.395l-3.311-7.283c-4.612 2.097-8.08 4.606-10.412 6.611a34.902 34.902 0 0 0-2.668 2.537 23.189 23.189 0 0 0-.914 1.028l-.062.077-.022.027-.008.01-.004.005a.002.002 0 0 1-.002.002c0 .001-.001.002 3.138 2.481Zm10.091-6.029.029.023-.016-.013-.05-.043-.059-.053-.052-.048-.085-.083a3.193 3.193 0 0 1-.307-.348 5.929 5.929 0 0 1-.107-.143 5.778 5.778 0 0 1-.144-.216 6.986 6.986 0 0 1-.196-.353 7.154 7.154 0 0 1-.25-.65 7.071 7.071 0 0 1-.151-1.32c.064-.532.457-1.655.811-2.21.448-.496 1.449-1.182 1.959-1.386a7.11 7.11 0 0 1 1.364-.189c.207.012.564.06.714.09.113.026.314.082.4.109.07.024.194.07.249.091a3.8 3.8 0 0 1 .582.294c.043.026.078.049.101.064l.06.039.066.046.035.026.034.024.012.01.003.002h.001-.001l-.002-.001a.022.022 0 0 0-.005-.004.625.625 0 0 0-.029-.023l-.005-.005-.002-.001v.001l.003.002.012.01a.455.455 0 0 1 .033.027l.034.028.062.055.055.051c.021.019.053.049.09.087l.071.072.104.113c.039.045.098.113.165.199l.122.166c.038.057.122.186.165.259.054.094.167.316.225.445.071.175.205.604.261.859.049.363.032 1.237-.066 1.737-.213.607-.938 1.706-1.44 2.163-.483.316-1.415.691-1.836.777a7.212 7.212 0 0 1-1.046.019 7.476 7.476 0 0 1-.556-.104 8.384 8.384 0 0 1-.326-.1 8.06 8.06 0 0 1-.21-.081 5.279 5.279 0 0 1-.331-.157c-.046-.024-.084-.046-.114-.063l-.076-.045a4.083 4.083 0 0 1-.095-.059l-.057-.037a1.58 1.58 0 0 1-.063-.044l-.052-.037-.016-.011.03.023 4.823-6.383-.067-.051-.075-.055-.069-.049-.069-.047a3.847 3.847 0 0 0-.156-.099l-.077-.045a3.961 3.961 0 0 0-.982-.401 6.827 6.827 0 0 0-.556-.104 7.188 7.188 0 0 0-1.045.018c-.422.087-1.354.462-1.836.778-.503.456-1.228 1.556-1.441 2.163-.098.499-.115 1.373-.065 1.736.055.256.189.685.26.86.058.129.171.351.225.445.044.073.127.202.166.259a4.853 4.853 0 0 0 .286.365c.042.047.078.085.105.113l.071.073.092.089.056.051a5.135 5.135 0 0 0 .153.131l.056.046.088.069.088.068.057.044.049.036.041.029c.015.011.04.029.071.049l.061.041.102.065.083.049c.032.018.074.042.125.069a3.684 3.684 0 0 0 .376.176c.056.022.18.068.249.092.087.027.287.083.401.109.15.03.507.077.714.09a7.05 7.05 0 0 0 1.364-.19c.51-.203 1.511-.89 1.959-1.385.354-.555.747-1.678.811-2.21a7.051 7.051 0 0 0-.151-1.32 7.042 7.042 0 0 0-.25-.65 7.043 7.043 0 0 0-.196-.354 6.742 6.742 0 0 0-.144-.216c-.029-.039-.082-.111-.108-.143a3.712 3.712 0 0 0-.394-.433l-.054-.05-.064-.058-.065-.056-.072-.06-.066-.053-5.037 6.215Zm2.519-3.108c-1.672 3.634-1.671 3.635-1.668 3.636l.009.004.029.014.108.049.406.182c.356.159.879.39 1.565.686 1.371.592 3.392 1.444 6.014 2.497 5.245 2.104 12.902 5.011 22.597 8.242 19.386 6.461 46.95 14.226 79.705 19.462 65.469 10.465 151.974 10.868 235.352-29.791l-3.507-7.19c-81.381 39.685-166.058 39.395-230.582 29.081-32.24-5.153-59.375-12.799-78.439-19.152-9.529-3.175-17.035-6.026-22.146-8.077a242.15 242.15 0 0 1-5.823-2.417 165.355 165.355 0 0 1-1.926-.849l-.019-.009-.004-.002s.001.001-1.671 3.634Zm343.065 5.324c8.552-1.525 15.343.003 19.97 1.869a30.573 30.573 0 0 1 5.281 2.731c.588.384 1.022.704 1.295.914.136.105.232.183.286.228l.049.041.001.001-.005-.005-.004-.004-.003-.002c-.001-.001-.003-.002 2.646-3 2.648-2.997 2.647-2.999 2.645-3l-.003-.003-.007-.007a.12.12 0 0 1-.018-.015l-.049-.042-.15-.126a19.47 19.47 0 0 0-.501-.4 28.61 28.61 0 0 0-1.802-1.275 38.653 38.653 0 0 0-6.669-3.456c-5.776-2.328-14.094-4.156-24.366-2.325l1.404 7.876Zm27.512 6.235c-1.383-.801-1.212-2.038-1.141-1.151.043.547-.006 1.533-.253 3.036-.484 2.95-1.578 7.035-3.107 11.789-3.044 9.461-7.62 20.993-11.757 30.187l7.296 3.282c4.23-9.401 8.923-21.215 12.076-31.019 1.57-4.878 2.806-9.406 3.386-12.944.286-1.742.453-3.468.334-4.965-.092-1.158-.461-3.77-2.827-5.139l-4.007 6.924Zm-16.131 43.604c-5.854 10.863-9.233 20.573-11.028 27.708-.896 3.561-1.41 6.528-1.632 8.715-.109 1.077-.158 2.064-.121 2.881.018.391.06.895.185 1.408.061.254.174.645.392 1.071.192.376.658 1.16 1.61 1.722l4.068-6.888a3.778 3.778 0 0 1 1.445 1.523c.168.329.236.592.26.689.048.199.039.27.032.115-.013-.276-.001-.835.088-1.713.175-1.723.608-4.301 1.431-7.571 1.642-6.524 4.787-15.611 10.312-25.865l-7.042-3.795Zm-10.622 43.489c1.705 1.026 3.323.445 3.82.228a4.99 4.99 0 0 0 1.233-.787c.46-.394.875-.871 1.199-1.269.69-.847 1.534-2.039 2.478-3.455 1.909-2.865 4.463-7.008 7.43-12.031l-6.888-4.068c-2.94 4.977-5.409 8.976-7.2 11.663-.906 1.36-1.58 2.295-2.021 2.837-.242.296-.296.328-.202.247.027-.023.299-.263.764-.466.367-.161 1.881-.735 3.511.246l-4.124 6.855Zm15.963-17.012c7.289-10.135 17.83-24.87 27.184-38.249 9.272-13.263 17.591-25.495 20.253-30.441l-7.045-3.791c-2.384 4.431-10.36 16.195-19.765 29.648-9.323 13.336-19.84 28.037-27.122 38.162l6.495 4.671Zm47.44-68.695c3.179-5.929 3.596-10.529 2.401-14.009-.583-1.695-1.481-2.909-2.293-3.722a8.305 8.305 0 0 0-1.089-.923 6.619 6.619 0 0 0-.567-.361l-.065-.037a.419.419 0 0 1-.03-.015l-.014-.008-.007-.003c-.003-.002-.006-.004-1.861 3.54-1.856 3.544-1.859 3.542-1.862 3.54l-.006-.003a.054.054 0 0 1-.013-.007l-.023-.012-.042-.023a1.219 1.219 0 0 1-.064-.038c-.036-.021-.056-.035-.066-.042-.018-.013.005.001.049.046.081.081.254.281.386.666.233.679.65 2.903-1.885 7.631l7.051 3.78Z" mask="url(#b)"/>
  <path fill="#003682" d="m329.798 276.817 38.267-2.986a21.917 21.917 0 0 1-6.291 10.493s-13.162 14.04-28.262-1.171a18.606 18.606 0 0 1-3.714-6.336Z"/>
  <path fill="#FD6434" d="M174.182 241.247c-.321 0-.638.024-.959.048-12.587-2.894-47.985-12.151-57.323-27.186 0 0 47.615-54.45-26.804-89.238l8.666 60.238s-22.942-15.436-27.894-48.888c0 0-55.863 40.755 24.655 79.817 0 0 7.303 27.587 77.423 49.598l.053-.212c.716.139 1.444.21 2.174.212 3.216 0 6.3-1.285 8.574-3.57a12.224 12.224 0 0 0 3.552-8.62c0-3.233-1.278-6.333-3.552-8.619a12.093 12.093 0 0 0-8.574-3.57l.009-.01Z"/>
  <ellipse cx="306.566" cy="236.253" fill="#003682" rx="25.966" ry="29.383"/>
  <ellipse cx="387.878" cy="236.253" fill="#003682" rx="26.65" ry="29.383"/>
  <ellipse cx="295.63" cy="223.951" fill="#fff" rx="10.933" ry="14.35"/>
  <ellipse cx="376.945" cy="223.951" fill="#fff" rx="10.25" ry="14.35"/>
  <path fill="#fff" d="m500.702 236.744 8.622 2.34-2.807 10.347-8.623-2.34z"/>
  <path fill="#E0EDFF" d="M547.349 150.719c-1.954 1.134-23.71 13.551-52.028 10.01l-18.272-2.261a4.257 4.257 0 0 0-4.639 3.102l-16.798 61.904c-10.215 37.645.177 70.442 13.24 93.921 13.063 23.479 28.902 37.856 30.393 39.183l2.855-3.169c-2.55-2.274-62.025-56.338-42.362-128.803l16.798-61.904 18.272 2.26c29.976 3.774 52.888-9.501 54.714-10.557l.074-.042-2.247-3.644Zm.016.011-.092.062 2.323 3.571-2.231-3.633Zm0 0 .05-.024.06-.039 2.117 3.689-2.227-3.626Zm-.005-.007 19.683-12.794a4.26 4.26 0 0 1 3.432-.539 4.268 4.268 0 0 1 2.702 2.198l10.68 21.163c.236.419.97 1.708 2.268 3.636a85.904 85.904 0 0 0 7.265 9.254 87.183 87.183 0 0 0 30.219 21.905l16.909 7.285a4.257 4.257 0 0 1 2.434 5.022l-16.798 61.904c-10.215 37.645-35.759 60.69-58.899 74.346-23.139 13.655-44.122 18.053-46.046 18.434l-10.433 2.097a4.266 4.266 0 0 1-3.693-1.002l-7.841-7.043 50.35-202.233"/>
  <path stroke="#fff" stroke-linejoin="round" stroke-width="11.38" d="m547.36 150.723 19.683-12.794a4.26 4.26 0 0 1 3.432-.539 4.268 4.268 0 0 1 2.702 2.198l10.68 21.163c.236.419.97 1.708 2.268 3.636a85.904 85.904 0 0 0 7.265 9.254 87.183 87.183 0 0 0 30.219 21.905l16.909 7.285a4.257 4.257 0 0 1 2.434 5.022l-16.798 61.904c-10.215 37.645-35.759 60.69-58.899 74.346-23.139 13.655-44.122 18.053-46.046 18.434l-10.433 2.097a4.266 4.266 0 0 1-3.693-1.002l-7.841-7.043 50.35-202.233m-2.243-3.637c-1.954 1.134-23.71 13.551-52.028 10.01l-18.272-2.261a4.257 4.257 0 0 0-4.639 3.102l-16.798 61.904c-10.215 37.645.177 70.442 13.24 93.921 13.063 23.479 28.902 37.856 30.393 39.183l2.855-3.169c-2.55-2.274-62.025-56.338-42.362-128.803l16.798-61.904 18.272 2.26c29.976 3.774 52.888-9.501 54.714-10.557l.074-.042-2.247-3.644Zm.016.011-.092.062 2.323 3.571-2.231-3.633Zm0 0 .05-.024.06-.039 2.117 3.689-2.227-3.626Z"/>
  <path fill="#E0EDFF" stroke="url(#c)" stroke-miterlimit="10" stroke-width="9" d="m476.537 161.427-1.108-.138-17.149 63.198c-9.981 36.782.14 68.878 13.022 92.002 12.881 23.125 28.541 37.345 29.887 38.542l7.88 7.076.507.438.628-.123 10.448-2.11c1.749-.357 22.483-4.72 45.271-18.153 22.789-13.433 47.761-36.02 57.741-72.801l17.149-63.198-1.02-.439-16.971-7.312c-27.811-11.923-40.704-35.05-41.374-36.27l-10.763-21.268-.641-1.281-1.201.781-19.815 12.877-.01.035c-1.766 1.021-24.487 14.135-54.145 10.425l-18.336-2.281Z"/>
  <path fill="#E0EDFF" d="M502.631 353.786c-2.55-2.277-62.16-56.439-42.465-129.021l16.827-62.01 18.308 2.272c30.564 3.826 53.798-9.979 54.901-10.616l19.806-12.87 10.734 21.251c.064.111 13.054 24.401 41.947 36.802l16.946 7.294-16.827 62.01c-19.695 72.582-98.507 89.184-101.858 89.859l-10.441 2.077-7.878-7.048Z"/>
  <path fill="#FFFAF2" stroke="url(#d)" stroke-width="18.443" d="m511.167 348.212 1.663 1.481 2.204-.351 3.021-.485.092-.019.091-.012c1.736-.353 20.443-4.317 40.989-16.346 20.546-12.029 43.369-32.474 52.402-65.762l14.357-52.913-3.718-1.633-4.583-1.986a102.38 102.38 0 0 1-36.134-26.33 97.11 97.11 0 0 1-8.52-11.114 67.532 67.532 0 0 1-2.04-3.313l-.472-.858-.159-.312-2.912-5.728-2.376-4.671-4.38 2.875-5.177 3.396-.183.1-.098.061c-.214.123-.518.303-.914.52a67.664 67.664 0 0 1-3.48 1.834 100.854 100.854 0 0 1-13.003 5.292 102.271 102.271 0 0 1-44.475 4.475l-4.958-.602-4.034-.471-14.358 52.913c-9.033 33.288.315 62.412 11.973 83.23 11.658 20.818 25.801 33.67 27.104 34.823l2.078 1.906Z"/>
  <path stroke="#FFCD89" stroke-linecap="round" stroke-miterlimit="10" stroke-opacity=".5" stroke-width="3" d="m566.254 152.597-52.003 191.647"/>
  <path stroke="#FFCD89" stroke-miterlimit="10" stroke-opacity=".5" stroke-width="3" d="m473.189 234.619 132.489 35.951"/>
  <path fill="#fff" stroke="#FFCD89" stroke-miterlimit="10" stroke-opacity=".5" stroke-width="3" d="M527.28 298.724a49.755 49.755 0 0 0 43.444-87.395 49.753 49.753 0 0 0-78.428 26.349 49.749 49.749 0 0 0 34.984 61.046Z"/>
  <path fill="url(#e)" d="M532.923 293.768c-2.734 10.154-13.232 16.32-23.429 13.752a19.325 19.325 0 0 1-12.624-10.172 16.317 16.317 0 0 1-13.173 3.135 16.324 16.324 0 0 1-11.002-7.895 16.313 16.313 0 0 1 8.114-23.265 19.318 19.318 0 0 1-2.397-16.034c2.939-10.096 13.566-16.038 23.709-13.264a19.372 19.372 0 0 1 14.127 20.954l87.826-50.335 5.736 10.007-87.826 50.336a19.371 19.371 0 0 1 10.939 22.781Zm-40.17-7.69a6.119 6.119 0 1 0-11.81-3.204 6.119 6.119 0 0 0 11.81 3.204Zm13.112-24.965a9.17 9.17 0 0 0-3.246-9.665 9.18 9.18 0 0 0-13.826 3.178 9.181 9.181 0 0 0 5.814 12.94 9.175 9.175 0 0 0 11.258-6.453Zm17.208 30.024A9.177 9.177 0 0 0 506 284.649a9.175 9.175 0 0 0 5.814 12.94 9.174 9.174 0 0 0 11.259-6.452Z"/>
  <path fill="url(#f)" d="m572.281 242.16 8.603 15.012 7.506-4.302-4.302-7.506 7.506-4.301 4.302 7.505 7.506-4.301-8.604-15.012-22.517 12.905Z"/>
  <path fill="url(#g)" d="M508.25 262.857h20.146v8.116H508.25z" transform="rotate(-29.818 508.25 262.857)"/>
  <path fill="url(#h)" d="M508.25 262.857h20.146v8.116H508.25z" transform="rotate(-29.818 508.25 262.857)"/>
  <circle cx="487.106" cy="284.329" r="11.903" stroke="url(#i)" stroke-width="9.24" transform="rotate(15.182 487.106 284.329)"/>
  <circle cx="513.958" cy="288.312" r="10.454" stroke="url(#j)" stroke-width="18.515" transform="rotate(15.182 513.958 288.312)"/>
  <circle cx="487.106" cy="284.329" r="11.903" stroke="url(#k)" stroke-width="9.24" transform="rotate(15.182 487.106 284.329)"/>
  <circle cx="487.106" cy="284.329" r="9.919" stroke="url(#l)" stroke-width="13.208" transform="rotate(15.182 487.106 284.329)"/>
  <circle cx="497.243" cy="259.147" r="10.454" stroke="url(#m)" stroke-width="18.515" transform="rotate(15.182 497.243 259.147)"/>
  <path fill="url(#n)" d="M535.193 247.688h78.056v8.116h-78.056z" transform="rotate(-29.818 535.193 247.688)"/>
  <path fill="url(#o)" d="m532.426 239.881 15.024 26.213-4.175 4.943-17.123-29.876 6.274-1.28Z"/>
  <path fill="url(#p)" d="m526.152 241.161 17.123 29.876-6.6 1.232-15.024-26.213 4.501-4.895Z"/>
  <circle cx="513.754" cy="287.956" r="9.258" stroke="url(#q)" stroke-width="7.573" transform="rotate(-104.818 513.754 287.956)"/>
  <circle cx="487.23" cy="284.268" r="9.258" stroke="url(#r)" stroke-width="5.81" transform="rotate(-104.818 487.23 284.268)"/>
  <circle cx="497.486" cy="258.771" r="9.258" stroke="url(#s)" stroke-width="7.573" transform="rotate(-104.818 497.486 258.771)"/>
  <defs>
    <linearGradient id="a" x1="319.727" x2="371.461" y1="582.824" y2="-174.308" gradientUnits="userSpaceOnUse">
      <stop stop-color="#0F006B"/>
      <stop offset=".083" stop-color="#281A81"/>
      <stop offset=".167" stop-color="#5D0C83"/>
      <stop offset=".25" stop-color="#911475"/>
      <stop offset=".305" stop-color="#CE2F55"/>
      <stop offset=".36" stop-color="#F65B3A"/>
      <stop offset=".418" stop-color="#F63"/>
      <stop offset=".5" stop-color="#F6821F"/>
      <stop offset=".639" stop-color="#FBAD41"/>
      <stop offset=".703" stop-color="#FFCD89"/>
      <stop offset=".75" stop-color="#FFE9CB"/>
      <stop offset=".833" stop-color="#FFF7EC"/>
      <stop offset=".917" stop-color="#FFF8EE"/>
      <stop offset="1" stop-color="#fff"/>
    </linearGradient>
    <linearGradient id="c" x1="509.597" x2="570.094" y1="362.551" y2="139.604" gradientUnits="userSpaceOnUse">
      <stop offset=".328" stop-color="#F63"/>
      <stop offset=".661" stop-color="#F6821F"/>
      <stop offset="1" stop-color="#FBAD41"/>
    </linearGradient>
    <linearGradient id="d" x1="268.882" x2="320.164" y1="534.438" y2="108.395" gradientUnits="userSpaceOnUse">
      <stop stop-color="#A8CBFF"/>
      <stop offset=".041" stop-color="#CDE1FF"/>
      <stop offset="1" stop-color="#fff"/>
    </linearGradient>
    <linearGradient id="e" x1="596.459" x2="431.388" y1="269.851" y2="194.122" gradientUnits="userSpaceOnUse">
      <stop stop-color="#F63"/>
      <stop offset=".152" stop-color="#F6821F"/>
      <stop offset=".383" stop-color="#FBAD41"/>
      <stop offset=".871" stop-color="#FFF8EE"/>
      <stop offset="1" stop-color="#fff"/>
    </linearGradient>
    <linearGradient id="f" x1="590.399" x2="577.982" y1="242.375" y2="293.67" gradientUnits="userSpaceOnUse">
      <stop stop-color="#F63"/>
      <stop offset=".152" stop-color="#F6821F"/>
      <stop offset=".383" stop-color="#FBAD41"/>
      <stop offset=".871" stop-color="#FFF8EE"/>
      <stop offset="1" stop-color="#fff"/>
    </linearGradient>
    <linearGradient id="g" x1="508.417" x2="611.591" y1="266.915" y2="254.906" gradientUnits="userSpaceOnUse">
      <stop stop-color="#F63"/>
      <stop offset=".152" stop-color="#F6821F"/>
      <stop offset=".277" stop-color="#FBAD41"/>
      <stop offset=".871" stop-color="#FFF8EE"/>
      <stop offset="1" stop-color="#fff"/>
    </linearGradient>
    <linearGradient id="h" x1="459.619" x2="553.822" y1="252.183" y2="222.541" gradientUnits="userSpaceOnUse">
      <stop stop-color="#F63"/>
      <stop offset=".152" stop-color="#F6821F"/>
      <stop offset=".277" stop-color="#FBAD41"/>
      <stop offset=".871" stop-color="#FFF8EE"/>
      <stop offset="1" stop-color="#fff"/>
    </linearGradient>
    <linearGradient id="i" x1="470.583" x2="479.3" y1="300.852" y2="280.314" gradientUnits="userSpaceOnUse">
      <stop stop-color="#F63"/>
      <stop offset=".326" stop-color="#F6821F"/>
      <stop offset=".664" stop-color="#FBAD41"/>
      <stop offset=".961" stop-color="#FFCD89"/>
    </linearGradient>
    <linearGradient id="j" x1="494.247" x2="520.009" y1="308.023" y2="266.283" gradientUnits="userSpaceOnUse">
      <stop stop-color="#F63"/>
      <stop offset=".326" stop-color="#F6821F"/>
      <stop offset=".664" stop-color="#FBAD41"/>
      <stop offset=".961" stop-color="#FFCD89"/>
    </linearGradient>
    <linearGradient id="k" x1="470.583" x2="491.625" y1="300.852" y2="279.224" gradientUnits="userSpaceOnUse">
      <stop stop-color="#F63"/>
      <stop offset=".326" stop-color="#F6821F"/>
      <stop offset=".664" stop-color="#FBAD41"/>
      <stop offset=".961" stop-color="#FFCD89"/>
    </linearGradient>
    <linearGradient id="l" x1="469.133" x2="451.532" y1="314.476" y2="279.382" gradientUnits="userSpaceOnUse">
      <stop stop-color="#F63"/>
      <stop offset=".326" stop-color="#F6821F"/>
      <stop offset=".664" stop-color="#FBAD41"/>
      <stop offset=".961" stop-color="#FFCD89"/>
    </linearGradient>
    <linearGradient id="m" x1="499.562" x2="497.243" y1="295.961" y2="233.348" gradientUnits="userSpaceOnUse">
      <stop stop-color="#F63"/>
      <stop offset=".152" stop-color="#F6821F"/>
      <stop offset=".383" stop-color="#FBAD41"/>
      <stop offset=".871" stop-color="#FFF8EE"/>
      <stop offset="1" stop-color="#fff"/>
    </linearGradient>
    <linearGradient id="n" x1="691.646" x2="515.085" y1="251.071" y2="170.366" gradientUnits="userSpaceOnUse">
      <stop stop-color="#F63"/>
      <stop offset=".152" stop-color="#F6821F"/>
      <stop offset=".277" stop-color="#FBAD41"/>
      <stop offset=".871" stop-color="#FFF8EE"/>
      <stop offset="1" stop-color="#fff"/>
    </linearGradient>
    <linearGradient id="o" x1="559.568" x2="507.512" y1="282.277" y2="226.655" gradientUnits="userSpaceOnUse">
      <stop stop-color="#F63"/>
      <stop offset=".152" stop-color="#F6821F"/>
      <stop offset=".277" stop-color="#FBAD41"/>
      <stop offset=".871" stop-color="#FFF8EE"/>
      <stop offset="1" stop-color="#fff"/>
    </linearGradient>
    <linearGradient id="p" x1="553.04" x2="523.054" y1="273.693" y2="273.418" gradientUnits="userSpaceOnUse">
      <stop stop-color="#F63"/>
      <stop offset=".152" stop-color="#F6821F"/>
      <stop offset=".277" stop-color="#FBAD41"/>
      <stop offset=".871" stop-color="#FFF8EE"/>
      <stop offset="1" stop-color="#fff"/>
    </linearGradient>
    <linearGradient id="q" x1="500.71" x2="517.758" y1="301.001" y2="273.378" gradientUnits="userSpaceOnUse">
      <stop stop-color="#F63"/>
      <stop offset=".326" stop-color="#F6821F"/>
      <stop offset=".664" stop-color="#FBAD41"/>
      <stop offset=".961" stop-color="#FFCD89"/>
    </linearGradient>
    <linearGradient id="r" x1="484.669" x2="430.073" y1="263.591" y2="307.716" gradientUnits="userSpaceOnUse">
      <stop stop-color="#F63"/>
      <stop offset=".152" stop-color="#F6821F"/>
      <stop offset=".383" stop-color="#FBAD41"/>
      <stop offset=".871" stop-color="#FFF8EE"/>
      <stop offset="1" stop-color="#fff"/>
    </linearGradient>
    <linearGradient id="s" x1="477.485" x2="517.918" y1="257.776" y2="261.372" gradientUnits="userSpaceOnUse">
      <stop stop-color="#F63"/>
      <stop offset=".152" stop-color="#F6821F"/>
      <stop offset=".277" stop-color="#FBAD41"/>
      <stop offset=".871" stop-color="#FFF8EE"/>
      <stop offset="1" stop-color="#fff"/>
    </linearGradient>
  </defs>
</svg>
